name C:\Users\u0101727\Documents\MyRepositories\upper-imu-dc\OpenSim\subject0\MA\train_motion_filt.mot									
datacolumns 10									
datarows 88									
range 0 0.87									
endheader 									
time	clav_prot	clav_elev	scapula_abduction	scapula_elevation	scapula_upward_rot	scapula_winging	plane_elv	shoulder_elv	axial_rot
0	-24.24100698	-5.06825596	-15.2208324	-4.21207351	11.48506224	6.0215831	-42.05444461	11.2361241	60.80954255
0.01	-24.08290791	-5.06429102	-15.10300307	-4.25384527	11.58520045	6.0035168	-42.02074692	11.25446941	60.88006279
0.02	-23.93652049	-5.06293899	-14.98503347	-4.29595542	11.68597083	5.98541235	-41.98572325	11.27296693	60.95109024
0.03	-23.80994528	-5.06556703	-14.86878256	-4.33784051	11.78575054	5.96763503	-41.94798641	11.29148709	61.02051931
0.04	-23.70564712	-5.07266017	-14.75469462	-4.37903036	11.88306306	5.95053159	-41.90550645	11.3100055	61.08586405
0.05	-23.62214286	-5.08405797	-14.64244311	-4.41912984	11.97653952	5.93443429	-41.85561136	11.32860757	61.14415956
0.06	-23.55592107	-5.09924061	-14.53157513	-4.45780639	12.06489391	5.91966394	-41.7950098	11.34748592	61.19190109
0.07	-23.50283481	-5.11754007	-14.42196071	-4.49478598	12.14691946	5.90653008	-41.71983814	11.36692945	61.22503501
0.08	-23.45902836	-5.13828412	-14.31406673	-4.52985822	12.22151138	5.89532658	-41.6257321	11.38730524	61.23900698
0.09	-23.42147183	-5.16088599	-14.20906127	-4.5628904	12.28771867	5.88632127	-41.50792174	11.40903534	61.22886405
0.1	-23.38816731	-5.18489454	-14.10873072	-4.59384881	12.34482308	5.87973969	-41.36134632	11.43257019	61.18940058
0.11	-23.35806696	-5.21002036	-14.01516448	-4.62282366	12.39243515	5.87574496	-41.18078414	11.45836065	61.11533255
0.12	-23.33070705	-5.23615258	-13.93012528	-4.65005044	12.430585	5.87441869	-40.96099154	11.48683098	61.00148153
0.13	-23.30589983	-5.26335044	-13.8546438	-4.67591626	12.4597689	5.87574905	-40.69684368	11.51835598	60.8429488
0.14	-23.2839257	-5.2917809	-13.7895814	-4.70093508	12.48089893	5.879634	-40.38347019	11.55324547	60.63526433
0.15	-23.26550733	-5.32166215	-13.73588961	-4.72568107	12.49512629	5.88591196	-40.01638096	11.59173644	60.374506
0.16	-23.25098189	-5.35326815	-13.69349507	-4.75069793	12.50359212	5.89441492	-39.59157652	11.63398914	60.05738425
0.17	-23.23985152	-5.38691806	-13.66077517	-4.77643144	12.50723828	5.90501057	-39.10563091	11.68008161	59.68127605
0.18	-23.23125963	-5.4229183	-13.63551136	-4.80322205	12.50678443	5.91760545	-38.55573955	11.73000028	59.2441978
0.19	-23.22455706	-5.46151804	-13.61586839	-4.83135238	12.50286918	5.93211178	-37.93973998	11.78363271	58.74473162
0.2	-23.21976347	-5.50287742	-13.60112814	-4.86111057	12.49625177	5.94839971	-37.25612048	11.8407774	58.18193244
0.21	-23.21779105	-5.54704137	-13.59203859	-4.89281905	12.4879321	5.96626468	-36.5040262	11.90118528	57.55524285
0.22	-23.2198543	-5.5939602	-13.58983012	-4.92680326	12.47910395	5.98543172	-35.6832584	11.96462923	56.86442957
0.23	-23.22652063	-5.64353626	-13.59466869	-4.96332407	12.47098214	6.00558994	-34.79424948	12.03097487	56.10953468
0.24	-23.23738491	-5.695638	-13.60519111	-5.00251985	12.4646202	6.02643291	-33.83800437	12.10022374	55.29082912
0.25	-23.25139514	-5.75008317	-13.61912385	-5.04438411	12.46080236	6.0476865	-32.81601827	12.17252173	54.40877111
0.26	-23.26729617	-5.80662496	-13.6340547	-5.0887748	12.46002059	6.06912004	-31.73018891	12.24814483	53.46398336
0.27	-23.28391411	-5.86495277	-13.64789508	-5.13543983	12.46250722	6.09054485	-30.58273757	12.32747624	52.45725864
0.28	-23.30028647	-5.92470189	-13.65906179	-5.18404656	12.46829177	6.11180602	-29.37614566	12.41098229	51.38959334
0.29	-23.31570754	-5.98546481	-13.66651111	-5.23420883	12.47726267	6.13277158	-28.11310755	12.49918997	50.26224194
0.3	-23.32973118	-6.04680115	-13.66970367	-5.28550939	12.489225	6.15332129	-26.7964981	12.59266644	49.07678354
0.31	-23.34215279	-6.10824575	-13.6685394	-5.33751809	12.50395133	6.17333609	-25.42935218	12.69200047	47.83519006
0.32	-23.35298249	-6.16931562	-13.66328276	-5.38980675	12.52122504	6.19268909	-24.01485289	12.79778589	46.53988592
0.33	-23.36241491	-6.22951689	-13.65448729	-5.44196209	12.54087686	6.21123839	-22.55632479	12.91060721	45.1937903
0.34	-23.37079724	-6.28835242	-13.6429209	-5.49359761	12.56281532	6.22882178	-21.05722864	13.03102765	43.80033592
0.35	-23.3785949	-6.34533062	-13.62949068	-5.54436467	12.58705143	6.24525362	-19.52115452	13.15957976	42.36346116
0.36	-23.38635377	-6.39997545	-13.61516516	-5.59396272	12.6137172	6.26032368	-17.95181101	13.29675867	40.88757559
0.37	-23.39465814	-6.45183722	-13.60089347	-5.64214799	12.6430771	6.27379808	-16.35300934	13.44301765	39.37750208
0.38	-23.40408507	-6.50050335	-13.58752276	-5.68873974	12.67553128	6.28542223	-14.7286424	13.59876572	37.83840126
0.39	-23.41515692	-6.5456083	-13.57571839	-5.73362335	12.71160943	6.2949257	-13.08265963	13.76436631	36.27568599
0.4	-23.4282959	-6.58684191	-13.56589337	-5.7767496	12.7519546	6.30202898	-11.41903963	13.94013649	34.69493455
0.41	-23.44378522	-6.62395533	-13.55815531	-5.81813006	12.79729756	6.3064517	-9.74176274	14.12634576	33.10181108
0.42	-23.46174146	-6.65676433	-13.55227775	-5.857829	12.84842275	6.3079221	-8.05478565	14.3232139	31.50200005
0.43	-23.48210151	-6.68515002	-13.54770066	-5.89595266	12.90612862	6.30618715	-6.36201976	14.53090768	29.90115861
0.44	-23.50462558	-6.70905723	-13.54356027	-5.93263719	12.97118534	6.30102266	-4.6673138	14.74953669	28.30488641
0.45	-23.52891513	-6.72849135	-13.53874472	-5.96803641	13.04429318	6.2922429	-2.97444027	14.97914911	26.71870812
0.46	-23.55444286	-6.74351416	-13.5319685	-6.0023107	13.1260448	6.27970909	-1.28708398	15.21972845	25.14806051
0.47	-23.58059068	-6.75423938	-13.52185706	-6.03561778	13.21689364	6.26333632	0.39116965	15.4711925	23.59827407
0.48	-23.60669103	-6.76082836	-13.50703294	-6.068106	13.31713011	6.24309858	2.05684938	15.73339538	22.07453926
0.49	-23.63206759	-6.76348627	-13.48619593	-6.09991007	13.42686634	6.21903183	3.70661834	16.00613318	20.58185008
0.5	-23.65607226	-6.76245868	-13.45819199	-6.13114936	13.54602924	6.19123488	5.33730163	16.28915298	19.12492091
0.51	-23.67811647	-6.75802855	-13.42206789	-6.16192802	13.6743616	6.15986843	6.94592169	16.58216457	17.70807754
0.52	-23.69769619	-6.75051318	-13.37711088	-6.19233682	13.81143039	6.12515199	8.52974088	16.88485354	16.33512684
0.53	-23.714411	-6.74026089	-13.32287482	-6.22245587	13.9566413	6.08735917	10.08630913	17.19689435	15.00921358
0.54	-23.72797843	-6.72764703	-13.25919465	-6.25235809	14.1092591	6.04681108	11.61351355	17.51796187	13.73267473
0.55	-23.73824435	-6.71306907	-13.18619147	-6.28211307	14.26843333	6.0038682	13.10962618	17.84774042	12.50690228
0.56	-23.74519016	-6.69694074	-13.10426888	-6.31179114	14.43322907	5.9589205	14.57334563	18.18592958	11.33222544
0.57	-23.74893635	-6.67968501	-13.01410033	-6.34146756	14.60266263	5.91237607	16.00382885	18.53224692	10.20782106
0.58	-23.74974139	-6.6617262	-12.91660598	-6.37122665	14.77574153	5.86464837	17.40070976	18.8864282	9.13165926
0.59	-23.74799493	-6.6434812	-12.81291735	-6.40116561	14.95150784	5.81614231	18.76410244	19.24822593	8.10048881
0.6	-23.74420432	-6.62534996	-12.70432969	-6.43139752	15.12908286	5.76723967	20.09458763	19.61740739	7.10986492
0.61	-23.73897497	-6.60770528	-12.59224379	-6.46205307	15.3077111	5.71828442	21.39318231	19.99375322	6.15422017
0.62	-23.73298587	-6.59088213	-12.47810109	-6.49328066	15.48680099	5.66956838	22.66129301	20.37705719	5.22697837
0.63	-23.72696242	-6.57516659	-12.36331725	-6.52524448	15.66596	5.62131812	23.9006545	20.76712718	4.32071013
0.64	-23.72164874	-6.5607849	-12.2492188	-6.55812065	15.84502242	5.57368338	25.11325602	21.16378703	3.42732823
0.65	-23.71778127	-6.54789287	-12.13698658	-6.59209156	16.02406872	5.52672768	26.30125841	21.56687822	2.53831992
0.66	-23.71606443	-6.5365664	-12.02760773	-6.62733883	16.20343598	5.48042131	27.46690575	21.97626002	1.64501211
0.67	-23.71714858	-6.52679345	-11.9218364	-6.66403531	16.38371953	5.43463704	28.61243615	22.39180702	0.7388636
0.68	-23.72160991	-6.51846813	-11.82016225	-6.70233662	16.56576605	5.38914857	29.73999615	22.81340284	-0.18822367
0.69	-23.72993159	-6.5113872	-11.72278544	-6.74237276	16.75065895	5.34363198	30.85156321	23.24092978	-1.14358481
0.7	-23.74248559	-6.50524952	-11.62959638	-6.78424009	16.93969639	5.2976701	31.94888011	23.67425449	-2.13347671
0.71	-23.7595147	-6.49965873	-11.54015934	-6.82799431	17.13436294	5.25075987	33.03340382	24.11321076	-3.16278297
0.72	-23.78111458	-6.49412958	-11.453699	-6.87364476	17.33629508	5.20232292	34.10627025	24.55758122	-4.23475614
0.73	-23.80721587	-6.48809805	-11.36909023	-6.9211504	17.54724123	5.15171919	35.16827443	25.00707995	-5.3508154
0.74	-23.837567	-6.4809355	-11.28485168	-6.97041765	17.76901625	5.09826386	36.21986488	25.46133869	-6.51041659
0.75	-23.87171884	-6.47196659	-11.19914589	-7.02130018	18.00345038	5.04124742	37.26114924	25.91989872	-7.71100901
0.76	-23.90901339	-6.46049058	-11.10979004	-7.07360039	18.25233222	4.97995875	38.29190837	26.38221067	-8.94808869
0.77	-23.94857995	-6.44580489	-11.01428392	-7.12707201	18.51734531	4.91371087	39.31161586	26.84764304	-10.21535094
0.78	-23.98934283	-6.42722967	-10.90986256	-7.18142331	18.7999984	4.84186861	40.31946041	27.31549992	-11.50493727
0.79	-24.03004468	-6.40413177	-10.793581	-7.23632008	19.1015498	4.76387728	41.31436935	27.78504666	-12.80776285
0.8	-24.06928871	-6.37594627	-10.66243614	-7.29138771	19.42292731	4.679291	42.29503262	28.25554166	-14.1139028
0.81	-24.10560117	-6.34219388	-10.51352719	-7.34621195	19.7646464	4.58779916	43.25992706	28.72627154	-15.41300973
0.82	-24.13751332	-6.30249299	-10.34425086	-7.4003382	20.12673061	4.48924948	44.20734213	29.19658666	-16.69473221
0.83	-24.16365933	-6.25656521	-10.15252177	-7.45326947	20.50863982	4.38366562	45.135408	29.66593399	-17.94910467
0.84	-24.18288325	-6.20423441	-9.93700112	-7.50446435	20.9092141	4.27125795	46.042128	30.13388487	-19.1668838
0.85	-24.1943445	-6.14541997	-9.69730836	-7.55333643	21.32664289	4.1524254	46.92541683	30.6001553	-20.33981329
0.86	-24.19760669	-6.08012623	-9.43418083	-7.59925824	21.75847145	4.02774724	47.7831459	31.06461728	-21.46080673
0.87	-24.1926894	-6.00843121	-9.14953634	-7.64157303	22.20165776	3.89796336	48.61319665	31.52729977	-22.52404676
